<mxfile host="app.diagrams.net" agent="Mozilla/5.0 (Windows NT 10.0; Win64; x64) AppleWebKit/537.36 (KHTML, like Gecko) Chrome/139.0.0.0 Safari/537.36" version="26.2.5">
  <diagram name="Page-1" id="vbREjbHP5ylI61D3axQh">
    <mxGraphModel dx="1799" dy="526" grid="1" gridSize="10" guides="1" tooltips="1" connect="1" arrows="1" fold="1" page="1" pageScale="1" pageWidth="827" pageHeight="1169" math="0" shadow="0">
      <root>
        <mxCell id="0" />
        <mxCell id="1" parent="0" />
        <mxCell id="-J_sWa7a3yORhVYftDo0-1" value="Car" style="rounded=0;whiteSpace=wrap;html=1;" vertex="1" parent="1">
          <mxGeometry x="150" y="30" width="120" height="60" as="geometry" />
        </mxCell>
        <mxCell id="-J_sWa7a3yORhVYftDo0-2" value="Rental" style="rounded=0;whiteSpace=wrap;html=1;" vertex="1" parent="1">
          <mxGeometry x="530" y="30" width="120" height="60" as="geometry" />
        </mxCell>
        <mxCell id="-J_sWa7a3yORhVYftDo0-4" value="" style="endArrow=none;html=1;rounded=0;exitX=1;exitY=0.5;exitDx=0;exitDy=0;entryX=0;entryY=0.5;entryDx=0;entryDy=0;" edge="1" parent="1" source="-J_sWa7a3yORhVYftDo0-1" target="-J_sWa7a3yORhVYftDo0-2">
          <mxGeometry width="50" height="50" relative="1" as="geometry">
            <mxPoint x="380" y="170" as="sourcePoint" />
            <mxPoint x="430" y="120" as="targetPoint" />
          </mxGeometry>
        </mxCell>
        <mxCell id="-J_sWa7a3yORhVYftDo0-5" value="rented under" style="text;html=1;align=center;verticalAlign=middle;resizable=0;points=[];autosize=1;strokeColor=none;fillColor=none;" vertex="1" parent="1">
          <mxGeometry x="350" y="30" width="90" height="30" as="geometry" />
        </mxCell>
        <mxCell id="-J_sWa7a3yORhVYftDo0-7" style="edgeStyle=orthogonalEdgeStyle;rounded=0;orthogonalLoop=1;jettySize=auto;html=1;exitX=0.5;exitY=0;exitDx=0;exitDy=0;entryX=0;entryY=0.5;entryDx=0;entryDy=0;" edge="1" parent="1" source="-J_sWa7a3yORhVYftDo0-6" target="-J_sWa7a3yORhVYftDo0-1">
          <mxGeometry relative="1" as="geometry" />
        </mxCell>
        <mxCell id="-J_sWa7a3yORhVYftDo0-16" value="details" style="edgeLabel;html=1;align=center;verticalAlign=middle;resizable=0;points=[];" vertex="1" connectable="0" parent="-J_sWa7a3yORhVYftDo0-7">
          <mxGeometry x="-0.2734" y="3" relative="1" as="geometry">
            <mxPoint as="offset" />
          </mxGeometry>
        </mxCell>
        <mxCell id="-J_sWa7a3yORhVYftDo0-6" value="Car Details" style="rounded=0;whiteSpace=wrap;html=1;" vertex="1" parent="1">
          <mxGeometry x="50" y="160" width="70" height="50" as="geometry" />
        </mxCell>
        <mxCell id="-J_sWa7a3yORhVYftDo0-8" value="Customer" style="rounded=0;whiteSpace=wrap;html=1;" vertex="1" parent="1">
          <mxGeometry x="705" y="140" width="110" height="40" as="geometry" />
        </mxCell>
        <mxCell id="-J_sWa7a3yORhVYftDo0-10" value="" style="endArrow=none;html=1;rounded=0;exitX=1;exitY=0.5;exitDx=0;exitDy=0;" edge="1" parent="1" source="-J_sWa7a3yORhVYftDo0-2">
          <mxGeometry width="50" height="50" relative="1" as="geometry">
            <mxPoint x="380" y="170" as="sourcePoint" />
            <mxPoint x="760" y="60" as="targetPoint" />
          </mxGeometry>
        </mxCell>
        <mxCell id="-J_sWa7a3yORhVYftDo0-11" value="" style="endArrow=none;html=1;rounded=0;exitX=0.5;exitY=0;exitDx=0;exitDy=0;" edge="1" parent="1" source="-J_sWa7a3yORhVYftDo0-8">
          <mxGeometry width="50" height="50" relative="1" as="geometry">
            <mxPoint x="660" y="70" as="sourcePoint" />
            <mxPoint x="760" y="60" as="targetPoint" />
          </mxGeometry>
        </mxCell>
        <mxCell id="-J_sWa7a3yORhVYftDo0-15" value="taken out&lt;div&gt;by&lt;/div&gt;" style="edgeLabel;html=1;align=center;verticalAlign=middle;resizable=0;points=[];" vertex="1" connectable="0" parent="-J_sWa7a3yORhVYftDo0-11">
          <mxGeometry x="0.0967" y="-2" relative="1" as="geometry">
            <mxPoint as="offset" />
          </mxGeometry>
        </mxCell>
        <mxCell id="-J_sWa7a3yORhVYftDo0-17" value="1..*" style="text;html=1;align=center;verticalAlign=middle;resizable=0;points=[];autosize=1;strokeColor=none;fillColor=none;" vertex="1" parent="1">
          <mxGeometry x="270" y="37" width="40" height="30" as="geometry" />
        </mxCell>
        <mxCell id="-J_sWa7a3yORhVYftDo0-19" value="0..1" style="text;html=1;align=center;verticalAlign=middle;resizable=0;points=[];autosize=1;strokeColor=none;fillColor=none;" vertex="1" parent="1">
          <mxGeometry x="490" y="37" width="40" height="30" as="geometry" />
        </mxCell>
        <mxCell id="-J_sWa7a3yORhVYftDo0-21" value="*" style="text;html=1;align=center;verticalAlign=middle;resizable=0;points=[];autosize=1;strokeColor=none;fillColor=none;" vertex="1" parent="1">
          <mxGeometry x="646" y="40" width="30" height="30" as="geometry" />
        </mxCell>
        <mxCell id="-J_sWa7a3yORhVYftDo0-22" value="1" style="text;html=1;align=center;verticalAlign=middle;resizable=0;points=[];autosize=1;strokeColor=none;fillColor=none;" vertex="1" parent="1">
          <mxGeometry x="738" y="118" width="30" height="30" as="geometry" />
        </mxCell>
        <mxCell id="-J_sWa7a3yORhVYftDo0-71" style="edgeStyle=orthogonalEdgeStyle;rounded=0;orthogonalLoop=1;jettySize=auto;html=1;exitX=1;exitY=0.75;exitDx=0;exitDy=0;entryX=0;entryY=0.5;entryDx=0;entryDy=0;endArrow=none;startFill=0;" edge="1" parent="1" source="-J_sWa7a3yORhVYftDo0-23" target="-J_sWa7a3yORhVYftDo0-8">
          <mxGeometry relative="1" as="geometry" />
        </mxCell>
        <mxCell id="-J_sWa7a3yORhVYftDo0-23" value="Car&lt;div&gt;Model&lt;/div&gt;" style="rounded=0;whiteSpace=wrap;html=1;" vertex="1" parent="1">
          <mxGeometry x="150" y="280" width="120" height="60" as="geometry" />
        </mxCell>
        <mxCell id="-J_sWa7a3yORhVYftDo0-24" value="" style="endArrow=none;html=1;rounded=0;exitX=0.5;exitY=0;exitDx=0;exitDy=0;entryX=0.5;entryY=1;entryDx=0;entryDy=0;" edge="1" parent="1" source="-J_sWa7a3yORhVYftDo0-23" target="-J_sWa7a3yORhVYftDo0-1">
          <mxGeometry width="50" height="50" relative="1" as="geometry">
            <mxPoint x="380" y="250" as="sourcePoint" />
            <mxPoint x="430" y="200" as="targetPoint" />
          </mxGeometry>
        </mxCell>
        <mxCell id="-J_sWa7a3yORhVYftDo0-28" value="example of" style="edgeLabel;html=1;align=center;verticalAlign=middle;resizable=0;points=[];" vertex="1" connectable="0" parent="-J_sWa7a3yORhVYftDo0-24">
          <mxGeometry x="0.0963" y="2" relative="1" as="geometry">
            <mxPoint as="offset" />
          </mxGeometry>
        </mxCell>
        <mxCell id="-J_sWa7a3yORhVYftDo0-26" value="*" style="text;html=1;align=center;verticalAlign=middle;resizable=0;points=[];autosize=1;strokeColor=none;fillColor=none;" vertex="1" parent="1">
          <mxGeometry x="205" y="88" width="30" height="30" as="geometry" />
        </mxCell>
        <mxCell id="-J_sWa7a3yORhVYftDo0-27" value="1" style="text;html=1;align=center;verticalAlign=middle;resizable=0;points=[];autosize=1;strokeColor=none;fillColor=none;" vertex="1" parent="1">
          <mxGeometry x="205" y="242" width="30" height="30" as="geometry" />
        </mxCell>
        <mxCell id="-J_sWa7a3yORhVYftDo0-29" value="Car&lt;div&gt;Model&lt;/div&gt;&lt;div&gt;Details&lt;/div&gt;" style="rounded=0;whiteSpace=wrap;html=1;" vertex="1" parent="1">
          <mxGeometry x="320" y="155" width="120" height="60" as="geometry" />
        </mxCell>
        <mxCell id="-J_sWa7a3yORhVYftDo0-30" value="" style="endArrow=none;html=1;rounded=0;exitX=0.5;exitY=1;exitDx=0;exitDy=0;" edge="1" parent="1">
          <mxGeometry width="50" height="50" relative="1" as="geometry">
            <mxPoint x="380" y="217" as="sourcePoint" />
            <mxPoint x="380" y="292" as="targetPoint" />
          </mxGeometry>
        </mxCell>
        <mxCell id="-J_sWa7a3yORhVYftDo0-32" value="details" style="edgeLabel;html=1;align=center;verticalAlign=middle;resizable=0;points=[];" vertex="1" connectable="0" parent="-J_sWa7a3yORhVYftDo0-30">
          <mxGeometry x="0.0243" y="-1" relative="1" as="geometry">
            <mxPoint as="offset" />
          </mxGeometry>
        </mxCell>
        <mxCell id="-J_sWa7a3yORhVYftDo0-31" value="" style="endArrow=none;html=1;rounded=0;entryX=1;entryY=0.5;entryDx=0;entryDy=0;" edge="1" parent="1">
          <mxGeometry width="50" height="50" relative="1" as="geometry">
            <mxPoint x="380" y="292" as="sourcePoint" />
            <mxPoint x="270" y="295" as="targetPoint" />
          </mxGeometry>
        </mxCell>
        <mxCell id="-J_sWa7a3yORhVYftDo0-33" value="1" style="text;html=1;align=center;verticalAlign=middle;resizable=0;points=[];autosize=1;strokeColor=none;fillColor=none;" vertex="1" parent="1">
          <mxGeometry x="345" y="218" width="30" height="30" as="geometry" />
        </mxCell>
        <mxCell id="-J_sWa7a3yORhVYftDo0-34" value="" style="rhombus;whiteSpace=wrap;html=1;strokeColor=default;fillColor=#000000;" vertex="1" parent="1">
          <mxGeometry x="130" y="49" width="20" height="20" as="geometry" />
        </mxCell>
        <mxCell id="-J_sWa7a3yORhVYftDo0-41" value="" style="rhombus;whiteSpace=wrap;html=1;strokeColor=default;fillColor=#000000;" vertex="1" parent="1">
          <mxGeometry x="270" y="284" width="20" height="20" as="geometry" />
        </mxCell>
        <mxCell id="-J_sWa7a3yORhVYftDo0-42" value="1" style="text;html=1;align=center;verticalAlign=middle;resizable=0;points=[];autosize=1;strokeColor=none;fillColor=none;" vertex="1" parent="1">
          <mxGeometry x="61" y="133" width="30" height="30" as="geometry" />
        </mxCell>
        <mxCell id="-J_sWa7a3yORhVYftDo0-43" value="Make" style="rounded=0;whiteSpace=wrap;html=1;" vertex="1" parent="1">
          <mxGeometry x="7" y="240" width="70" height="40" as="geometry" />
        </mxCell>
        <mxCell id="-J_sWa7a3yORhVYftDo0-45" value="" style="endArrow=none;html=1;rounded=0;exitX=0;exitY=0.5;exitDx=0;exitDy=0;" edge="1" parent="1" source="-J_sWa7a3yORhVYftDo0-23">
          <mxGeometry width="50" height="50" relative="1" as="geometry">
            <mxPoint x="55" y="300" as="sourcePoint" />
            <mxPoint x="40" y="310" as="targetPoint" />
          </mxGeometry>
        </mxCell>
        <mxCell id="-J_sWa7a3yORhVYftDo0-47" value="" style="endArrow=none;html=1;rounded=0;exitX=0.5;exitY=1;exitDx=0;exitDy=0;" edge="1" parent="1">
          <mxGeometry width="50" height="50" relative="1" as="geometry">
            <mxPoint x="39" y="280" as="sourcePoint" />
            <mxPoint x="39" y="310" as="targetPoint" />
          </mxGeometry>
        </mxCell>
        <mxCell id="-J_sWa7a3yORhVYftDo0-48" value="makes" style="text;html=1;align=center;verticalAlign=middle;resizable=0;points=[];autosize=1;strokeColor=none;fillColor=none;" vertex="1" parent="1">
          <mxGeometry x="67" y="287" width="60" height="30" as="geometry" />
        </mxCell>
        <mxCell id="-J_sWa7a3yORhVYftDo0-49" value="1..*" style="text;html=1;align=center;verticalAlign=middle;resizable=0;points=[];autosize=1;strokeColor=none;fillColor=none;" vertex="1" parent="1">
          <mxGeometry x="-1" y="278" width="40" height="30" as="geometry" />
        </mxCell>
        <mxCell id="-J_sWa7a3yORhVYftDo0-50" value="*" style="text;html=1;align=center;verticalAlign=middle;resizable=0;points=[];autosize=1;strokeColor=none;fillColor=none;" vertex="1" parent="1">
          <mxGeometry x="125" y="308" width="30" height="30" as="geometry" />
        </mxCell>
        <mxCell id="-J_sWa7a3yORhVYftDo0-51" value="Category" style="rounded=0;whiteSpace=wrap;html=1;" vertex="1" parent="1">
          <mxGeometry x="133" y="420" width="60" height="40" as="geometry" />
        </mxCell>
        <mxCell id="-J_sWa7a3yORhVYftDo0-52" value="Vendor" style="rounded=0;whiteSpace=wrap;html=1;" vertex="1" parent="1">
          <mxGeometry x="244.5" y="420" width="65.5" height="40" as="geometry" />
        </mxCell>
        <mxCell id="-J_sWa7a3yORhVYftDo0-53" value="" style="endArrow=none;html=1;rounded=0;entryX=0.5;entryY=0;entryDx=0;entryDy=0;" edge="1" parent="1" target="-J_sWa7a3yORhVYftDo0-51">
          <mxGeometry width="50" height="50" relative="1" as="geometry">
            <mxPoint x="163" y="340" as="sourcePoint" />
            <mxPoint x="157" y="400" as="targetPoint" />
          </mxGeometry>
        </mxCell>
        <mxCell id="-J_sWa7a3yORhVYftDo0-56" value="classified&amp;nbsp;&lt;div&gt;as&lt;/div&gt;" style="edgeLabel;html=1;align=center;verticalAlign=middle;resizable=0;points=[];" vertex="1" connectable="0" parent="-J_sWa7a3yORhVYftDo0-53">
          <mxGeometry x="-0.1867" y="-3" relative="1" as="geometry">
            <mxPoint y="10" as="offset" />
          </mxGeometry>
        </mxCell>
        <mxCell id="-J_sWa7a3yORhVYftDo0-54" value="" style="endArrow=none;html=1;rounded=0;exitX=0.75;exitY=1;exitDx=0;exitDy=0;entryX=0.25;entryY=0;entryDx=0;entryDy=0;" edge="1" parent="1" target="-J_sWa7a3yORhVYftDo0-52">
          <mxGeometry width="50" height="50" relative="1" as="geometry">
            <mxPoint x="260" y="340" as="sourcePoint" />
            <mxPoint x="261.25" y="400" as="targetPoint" />
          </mxGeometry>
        </mxCell>
        <mxCell id="-J_sWa7a3yORhVYftDo0-57" value="sold&amp;nbsp;&lt;div&gt;by&lt;/div&gt;" style="edgeLabel;html=1;align=center;verticalAlign=middle;resizable=0;points=[];" vertex="1" connectable="0" parent="-J_sWa7a3yORhVYftDo0-54">
          <mxGeometry x="-0.2941" y="-1" relative="1" as="geometry">
            <mxPoint y="13" as="offset" />
          </mxGeometry>
        </mxCell>
        <mxCell id="-J_sWa7a3yORhVYftDo0-58" value="*" style="text;html=1;align=center;verticalAlign=middle;resizable=0;points=[];autosize=1;strokeColor=none;fillColor=none;" vertex="1" parent="1">
          <mxGeometry x="155" y="338" width="30" height="30" as="geometry" />
        </mxCell>
        <mxCell id="-J_sWa7a3yORhVYftDo0-65" value="*" style="text;html=1;align=center;verticalAlign=middle;resizable=0;points=[];autosize=1;strokeColor=none;fillColor=none;" vertex="1" parent="1">
          <mxGeometry x="250" y="335" width="30" height="30" as="geometry" />
        </mxCell>
        <mxCell id="-J_sWa7a3yORhVYftDo0-66" value="1" style="text;html=1;align=center;verticalAlign=middle;resizable=0;points=[];autosize=1;strokeColor=none;fillColor=none;" vertex="1" parent="1">
          <mxGeometry x="152" y="399" width="30" height="30" as="geometry" />
        </mxCell>
        <mxCell id="-J_sWa7a3yORhVYftDo0-67" value="1" style="text;html=1;align=center;verticalAlign=middle;resizable=0;points=[];autosize=1;strokeColor=none;fillColor=none;" vertex="1" parent="1">
          <mxGeometry x="252" y="398" width="30" height="30" as="geometry" />
        </mxCell>
        <mxCell id="-J_sWa7a3yORhVYftDo0-72" style="edgeStyle=orthogonalEdgeStyle;rounded=0;orthogonalLoop=1;jettySize=auto;html=1;exitX=0.5;exitY=0;exitDx=0;exitDy=0;endArrow=none;startFill=0;dashed=1;" edge="1" parent="1">
          <mxGeometry relative="1" as="geometry">
            <mxPoint x="380" y="325" as="targetPoint" />
            <mxPoint x="380" y="365" as="sourcePoint" />
          </mxGeometry>
        </mxCell>
        <mxCell id="-J_sWa7a3yORhVYftDo0-69" value="Reservation" style="rounded=0;whiteSpace=wrap;html=1;" vertex="1" parent="1">
          <mxGeometry x="335" y="360" width="90" height="15" as="geometry" />
        </mxCell>
        <mxCell id="-J_sWa7a3yORhVYftDo0-73" value="*" style="text;html=1;align=center;verticalAlign=middle;resizable=0;points=[];autosize=1;strokeColor=none;fillColor=none;" vertex="1" parent="1">
          <mxGeometry x="265" y="320" width="30" height="30" as="geometry" />
        </mxCell>
        <mxCell id="-J_sWa7a3yORhVYftDo0-74" value="*" style="text;html=1;align=center;verticalAlign=middle;resizable=0;points=[];autosize=1;strokeColor=none;fillColor=none;" vertex="1" parent="1">
          <mxGeometry x="676" y="140" width="30" height="30" as="geometry" />
        </mxCell>
        <mxCell id="-J_sWa7a3yORhVYftDo0-77" style="edgeStyle=orthogonalEdgeStyle;rounded=0;orthogonalLoop=1;jettySize=auto;html=1;exitX=0.5;exitY=0;exitDx=0;exitDy=0;entryX=0.5;entryY=0;entryDx=0;entryDy=0;endArrow=none;startFill=0;" edge="1" parent="1" source="-J_sWa7a3yORhVYftDo0-75" target="-J_sWa7a3yORhVYftDo0-76">
          <mxGeometry relative="1" as="geometry" />
        </mxCell>
        <mxCell id="-J_sWa7a3yORhVYftDo0-84" style="edgeStyle=orthogonalEdgeStyle;rounded=0;orthogonalLoop=1;jettySize=auto;html=1;exitX=1;exitY=0.5;exitDx=0;exitDy=0;entryX=0;entryY=0.5;entryDx=0;entryDy=0;endArrow=none;startFill=0;" edge="1" parent="1" source="-J_sWa7a3yORhVYftDo0-75" target="-J_sWa7a3yORhVYftDo0-82">
          <mxGeometry relative="1" as="geometry" />
        </mxCell>
        <mxCell id="-J_sWa7a3yORhVYftDo0-87" value="log ins&lt;div&gt;with&lt;/div&gt;" style="edgeLabel;html=1;align=center;verticalAlign=middle;resizable=0;points=[];" vertex="1" connectable="0" parent="-J_sWa7a3yORhVYftDo0-84">
          <mxGeometry x="-0.1311" relative="1" as="geometry">
            <mxPoint as="offset" />
          </mxGeometry>
        </mxCell>
        <mxCell id="-J_sWa7a3yORhVYftDo0-75" value="Member" style="rounded=0;whiteSpace=wrap;html=1;" vertex="1" parent="1">
          <mxGeometry x="596" y="250" width="110" height="40" as="geometry" />
        </mxCell>
        <mxCell id="-J_sWa7a3yORhVYftDo0-76" value="NonMember" style="rounded=0;whiteSpace=wrap;html=1;" vertex="1" parent="1">
          <mxGeometry x="800" y="232" width="110" height="40" as="geometry" />
        </mxCell>
        <mxCell id="-J_sWa7a3yORhVYftDo0-79" value="" style="endArrow=block;html=1;rounded=0;entryX=0.5;entryY=1;entryDx=0;entryDy=0;endFill=0;strokeWidth=1;endSize=10;" edge="1" parent="1">
          <mxGeometry width="50" height="50" relative="1" as="geometry">
            <mxPoint x="760" y="212" as="sourcePoint" />
            <mxPoint x="760" y="182" as="targetPoint" />
          </mxGeometry>
        </mxCell>
        <mxCell id="-J_sWa7a3yORhVYftDo0-80" value="Member" style="rounded=0;whiteSpace=wrap;html=1;" vertex="1" parent="1">
          <mxGeometry x="523" y="420" width="110" height="40" as="geometry" />
        </mxCell>
        <mxCell id="-J_sWa7a3yORhVYftDo0-81" value="Member" style="rounded=0;whiteSpace=wrap;html=1;" vertex="1" parent="1">
          <mxGeometry x="665" y="420" width="110" height="40" as="geometry" />
        </mxCell>
        <mxCell id="-J_sWa7a3yORhVYftDo0-82" value="Internet&amp;nbsp;&lt;div&gt;Account&lt;/div&gt;" style="rounded=0;whiteSpace=wrap;html=1;" vertex="1" parent="1">
          <mxGeometry x="830" y="340" width="97" height="40" as="geometry" />
        </mxCell>
        <mxCell id="-J_sWa7a3yORhVYftDo0-85" value="1" style="text;html=1;align=center;verticalAlign=middle;resizable=0;points=[];autosize=1;strokeColor=none;fillColor=none;" vertex="1" parent="1">
          <mxGeometry x="705" y="248" width="30" height="30" as="geometry" />
        </mxCell>
        <mxCell id="-J_sWa7a3yORhVYftDo0-86" value="1" style="text;html=1;align=center;verticalAlign=middle;resizable=0;points=[];autosize=1;strokeColor=none;fillColor=none;" vertex="1" parent="1">
          <mxGeometry x="795" y="338" width="30" height="30" as="geometry" />
        </mxCell>
        <mxCell id="-J_sWa7a3yORhVYftDo0-88" style="edgeStyle=orthogonalEdgeStyle;rounded=0;orthogonalLoop=1;jettySize=auto;html=1;entryX=0.911;entryY=0.09;entryDx=0;entryDy=0;entryPerimeter=0;endArrow=none;startFill=0;" edge="1" parent="1">
          <mxGeometry relative="1" as="geometry">
            <mxPoint x="623" y="290" as="sourcePoint" />
            <mxPoint x="623.21" y="420.6" as="targetPoint" />
          </mxGeometry>
        </mxCell>
        <mxCell id="-J_sWa7a3yORhVYftDo0-93" value="guaranteed&lt;div&gt;by&lt;/div&gt;" style="edgeLabel;html=1;align=center;verticalAlign=middle;resizable=0;points=[];" vertex="1" connectable="0" parent="-J_sWa7a3yORhVYftDo0-88">
          <mxGeometry x="-0.0259" y="-1" relative="1" as="geometry">
            <mxPoint as="offset" />
          </mxGeometry>
        </mxCell>
        <mxCell id="-J_sWa7a3yORhVYftDo0-90" style="edgeStyle=orthogonalEdgeStyle;rounded=0;orthogonalLoop=1;jettySize=auto;html=1;entryX=0.911;entryY=0.09;entryDx=0;entryDy=0;entryPerimeter=0;endArrow=none;startFill=0;" edge="1" parent="1">
          <mxGeometry relative="1" as="geometry">
            <mxPoint x="680" y="289.4" as="sourcePoint" />
            <mxPoint x="680.21" y="420" as="targetPoint" />
          </mxGeometry>
        </mxCell>
        <mxCell id="-J_sWa7a3yORhVYftDo0-94" value="lives&amp;nbsp;&lt;div&gt;at&lt;/div&gt;" style="edgeLabel;html=1;align=center;verticalAlign=middle;resizable=0;points=[];" vertex="1" connectable="0" parent="-J_sWa7a3yORhVYftDo0-90">
          <mxGeometry x="-0.0894" relative="1" as="geometry">
            <mxPoint y="1" as="offset" />
          </mxGeometry>
        </mxCell>
        <mxCell id="-J_sWa7a3yORhVYftDo0-91" value="1..*" style="text;html=1;align=center;verticalAlign=middle;resizable=0;points=[];autosize=1;strokeColor=none;fillColor=none;" vertex="1" parent="1">
          <mxGeometry x="580" y="287" width="40" height="30" as="geometry" />
        </mxCell>
        <mxCell id="-J_sWa7a3yORhVYftDo0-92" value="1..*" style="text;html=1;align=center;verticalAlign=middle;resizable=0;points=[];autosize=1;strokeColor=none;fillColor=none;" vertex="1" parent="1">
          <mxGeometry x="646" y="288" width="40" height="30" as="geometry" />
        </mxCell>
        <mxCell id="-J_sWa7a3yORhVYftDo0-95" value="1" style="text;html=1;align=center;verticalAlign=middle;resizable=0;points=[];autosize=1;strokeColor=none;fillColor=none;" vertex="1" parent="1">
          <mxGeometry x="615" y="388" width="30" height="30" as="geometry" />
        </mxCell>
        <mxCell id="-J_sWa7a3yORhVYftDo0-96" value="1" style="text;html=1;align=center;verticalAlign=middle;resizable=0;points=[];autosize=1;strokeColor=none;fillColor=none;" vertex="1" parent="1">
          <mxGeometry x="675" y="393" width="30" height="30" as="geometry" />
        </mxCell>
      </root>
    </mxGraphModel>
  </diagram>
</mxfile>
